<svg width="504" height="345" viewBox="0 0 504 345" fill="none" xmlns="http://www.w3.org/2000/svg">
<path d="M253 49C249.817 49 246.765 47.7357 244.515 45.4853C242.264 43.2348 241 40.1826 241 37V12C241 8.8174 242.264 5.76516 244.515 3.51472C246.765 1.26428 249.817 0 253 0C256.183 0 259.235 1.26428 261.485 3.51472C263.736 5.76516 265 8.8174 265 12V37C265 40.1826 263.736 43.2348 261.485 45.4853C259.235 47.7357 256.183 49 253 49Z" fill="#FCE6AA"/>
<path d="M149.011 76.869C146.903 76.8703 144.832 76.3165 143.007 75.2632C141.181 74.2099 139.665 72.6943 138.611 70.869L126.111 49.218C124.52 46.4616 124.089 43.1859 124.912 40.1117C125.736 37.0374 127.748 34.4163 130.504 32.825C133.26 31.2337 136.536 30.8025 139.61 31.6264C142.685 32.4502 145.306 34.4616 146.897 37.218L159.397 58.869C160.45 60.6925 161.004 62.7608 161.005 64.8664C161.005 66.972 160.452 69.0406 159.4 70.8645C158.348 72.6884 156.834 74.2035 155.011 75.2574C153.189 76.3114 151.121 76.8672 149.015 76.869H149.011Z" fill="#FCE6AA"/>
<path d="M72.856 153C70.7529 153 68.6871 152.445 66.867 151.391L45.216 138.891C42.4596 137.3 40.4483 134.679 39.6244 131.604C38.8006 128.53 39.2317 125.254 40.823 122.498C42.4143 119.742 45.0354 117.73 48.1097 116.906C51.184 116.083 54.4596 116.514 57.216 118.105L78.867 130.605C81.1569 131.926 82.9466 133.966 83.9582 136.408C84.9698 138.85 85.1468 141.558 84.4615 144.111C83.7762 146.664 82.2671 148.919 80.1686 150.527C78.07 152.134 75.4994 153.003 72.856 153V153Z" fill="#FCE6AA"/>
<path d="M433.144 153C430.499 153.005 427.926 152.137 425.826 150.529C423.726 148.921 422.215 146.665 421.53 144.11C420.844 141.556 421.022 138.846 422.035 136.403C423.049 133.96 424.841 131.92 427.133 130.6L448.784 118.1C451.54 116.509 454.816 116.078 457.89 116.901C460.965 117.725 463.586 119.737 465.177 122.493C466.768 125.249 467.199 128.525 466.376 131.599C465.552 134.674 463.54 137.295 460.784 138.886L439.133 151.386C437.313 152.441 435.248 152.998 433.144 153V153Z" fill="#FCE6AA"/>
<path d="M356.989 76.869C354.883 76.8672 352.815 76.3114 350.993 75.2574C349.17 74.2035 347.656 72.6884 346.604 70.8645C345.552 69.0406 344.999 66.972 344.999 64.8664C345 62.7608 345.554 60.6925 346.607 58.869L359.107 37.218C360.698 34.4616 363.319 32.4502 366.394 31.6264C369.468 30.8025 372.744 31.2337 375.5 32.825C378.256 34.4163 380.268 37.0374 381.092 40.1117C381.915 43.1859 381.484 46.4616 379.893 49.218L367.393 70.869C366.339 72.6949 364.822 74.2109 362.996 75.2642C361.169 76.3175 359.097 76.871 356.989 76.869V76.869Z" fill="#FCE6AA"/>
<path d="M253 73C158.159 73 81 150.159 81 245C81 248.183 82.2643 251.235 84.5147 253.485C86.7652 255.736 89.8174 257 93 257H413C416.183 257 419.235 255.736 421.485 253.485C423.736 251.235 425 248.183 425 245C425 150.159 347.841 73 253 73Z" fill="url(#paint0_linear)"/>
<path d="M491.5 257.5H12.5C9.3174 257.5 6.26516 256.236 4.01472 253.985C1.76428 251.735 0.5 248.683 0.5 245.5C0.5 242.317 1.76428 239.265 4.01472 237.015C6.26516 234.764 9.3174 233.5 12.5 233.5H491.5C494.683 233.5 497.735 234.764 499.985 237.015C502.236 239.265 503.5 242.317 503.5 245.5C503.5 248.683 502.236 251.735 499.985 253.985C497.735 256.236 494.683 257.5 491.5 257.5Z" fill="#B7BFD8"/>
<path d="M300.485 284.515C298.235 282.265 295.182 281.001 292 281.001C288.818 281.001 285.765 282.265 283.515 284.515L264 304.029V141C264 137.817 262.736 134.765 260.485 132.515C258.235 130.264 255.183 129 252 129C248.817 129 245.765 130.264 243.515 132.515C241.264 134.765 240 137.817 240 141V304.029L220.485 284.515C218.228 282.295 215.186 281.056 212.02 281.069C208.855 281.082 205.822 282.345 203.584 284.584C201.345 286.822 200.082 289.855 200.069 293.02C200.056 296.186 201.295 299.228 203.515 301.485L243.515 341.485C245.765 343.735 248.818 344.999 252 344.999C255.182 344.999 258.235 343.735 260.485 341.485L300.485 301.485C302.735 299.235 303.999 296.182 303.999 293C303.999 289.818 302.735 286.765 300.485 284.515Z" fill="#8C84BC"/>
<defs>
<linearGradient id="paint0_linear" x1="147.975" y1="316.945" x2="358.025" y2="106.895" gradientUnits="userSpaceOnUse">
<stop offset="0.015" stop-color="#F9CD55"/>
<stop offset="1" stop-color="#FDBC8C"/>
</linearGradient>
</defs>
</svg>
