<svg height="512" viewBox="0 0 512 512" width="512" xmlns="http://www.w3.org/2000/svg"
    xmlns:xlink="http://www.w3.org/1999/xlink">
    <linearGradient id="New_Gradient_Swatch_31" gradientUnits="userSpaceOnUse" x1="37.626" x2="329.331" y1="367.901"
        y2="76.196">
        <stop offset=".015" stop-color="#8c84bc" />
        <stop offset="1" stop-color="#dbdfec" />
    </linearGradient>
    <linearGradient id="New_Gradient_Swatch_27" gradientUnits="userSpaceOnUse" x1="89.706" x2="276.294" y1="277.294"
        y2="90.706">
        <stop offset=".015" stop-color="#c9e4dd" />
        <stop offset="1" stop-color="#e4f2ee" />
    </linearGradient>
    <g id="_27-location" data-name="27-location">
        <g id="gradient">
            <path
                d="m183.478 4.782c-99.252 0-180 80.748-180 180 0 58.878 28.974 130.813 86.116 213.806 42.059 61.085 83.462 104.655 85.2 106.48a12 12 0 0 0 17.36 0c1.742-1.825 43.145-45.395 85.2-106.48 57.146-82.988 86.124-154.928 86.124-213.806 0-99.252-80.748-180-180-180z"
                fill="url(#New_Gradient_Swatch_31)" />
            <circle cx="183" cy="184" fill="url(#New_Gradient_Swatch_27)" r="132" />
            <path
                d="m223 220h-16a20.023 20.023 0 0 1 -20-20v-16a20.023 20.023 0 0 1 20-20h16a12 12 0 0 0 0-24h-16a44.049 44.049 0 0 0 -44 44v16a44.049 44.049 0 0 0 44 44h16a12 12 0 0 0 0-24z"
                fill="#fff" />
            <circle cx="143" cy="144" fill="#fff" r="12" />
            <path
                d="m502.8 99.024a12 12 0 0 0 -11.755-1.289 28 28 0 0 1 -33.716-42.156 12 12 0 0 0 -8.094-18.94 68.811 68.811 0 0 0 -9.235-.639 68 68 0 1 0 67.742 73.767 12 12 0 0 0 -4.942-10.743z"
                fill="url(#New_Gradient_Swatch_29)" />
        </g>
    </g>
</svg>