<svg width="72" height="25" viewBox="0 0 72 25" fill="none" xmlns="http://www.w3.org/2000/svg">
<path fill-rule="evenodd" clip-rule="evenodd" d="M30.2796 9.9031C30.764 9.80259 31.2574 9.75216 31.7517 9.75216C35.8574 9.75216 39.1862 13.1655 39.1862 17.3761C39.1862 21.5867 35.8574 25 31.7517 25H6.74486C3.05766 24.9939 0.0562115 21.9573 0.000769762 18.1764C-0.054342 14.396 2.85668 11.2679 6.54191 11.1485C5.01462 6.83465 7.18675 2.06733 11.3937 0.50112C15.6007 -1.06509 20.2492 1.16239 21.7765 5.47657C23.4642 4.67553 25.4169 4.71174 27.0748 5.57505C28.7331 6.43836 29.9142 8.03333 30.2796 9.9031ZM6.14727 22.4255C6.69623 22.6472 7.30465 22.7581 7.97254 22.7581C8.35681 22.7581 8.71363 22.735 9.043 22.6888C9.37238 22.6426 9.66058 22.5872 9.9076 22.5225C10.1546 22.4578 10.3605 22.3932 10.5252 22.3285C10.6899 22.2546 10.8042 22.1945 10.8683 22.1483L10.5252 21.0396C10.3239 21.1412 10.022 21.2567 9.6194 21.3861C9.21684 21.5154 8.70906 21.5801 8.09606 21.5801C7.5654 21.5801 7.09879 21.4877 6.69623 21.3029C6.30281 21.1181 5.97344 20.8594 5.70811 20.5268C5.44278 20.185 5.2415 19.7784 5.10426 19.3072C4.97617 18.836 4.91213 18.314 4.91213 17.7412C4.91213 17.1499 4.98532 16.6186 5.13171 16.1474C5.28725 15.667 5.50683 15.2604 5.79045 14.9278C6.07408 14.5952 6.41718 14.3411 6.81974 14.1656C7.22231 13.99 7.67519 13.9023 8.1784 13.9023C8.41628 13.9023 8.64959 13.9253 8.87832 13.9715C9.1162 14.0085 9.3312 14.0593 9.52334 14.124C9.72462 14.1887 9.90303 14.2533 10.0586 14.318C10.2141 14.3827 10.333 14.4427 10.4154 14.4982L10.7997 13.3895C10.7448 13.3525 10.6441 13.2971 10.4977 13.2232C10.3513 13.1492 10.1592 13.0753 9.92133 13.0014C9.6926 12.9275 9.41812 12.8628 9.0979 12.8074C8.78682 12.752 8.43458 12.7242 8.04116 12.7242C7.41902 12.7242 6.83347 12.8351 6.28451 13.0569C5.73556 13.2786 5.25523 13.602 4.84351 14.027C4.4318 14.452 4.10242 14.9786 3.85539 15.6069C3.61752 16.2259 3.49858 16.9374 3.49858 17.7412C3.49858 18.545 3.60379 19.261 3.81422 19.8893C4.0338 20.5083 4.3403 21.0304 4.73372 21.4554C5.12714 21.8804 5.59832 22.2037 6.14727 22.4255ZM21.4784 22.5502V21.3861H17.0868V12.946H15.7556V22.5502H21.4784ZM25.5905 15.5653C25.3526 16.1936 25.2337 16.9189 25.2337 17.7412C25.2337 18.5635 25.3526 19.2888 25.5905 19.917C25.8375 20.5453 26.1669 21.0719 26.5786 21.4969C26.9995 21.9127 27.4844 22.2268 28.0334 22.4393C28.5915 22.6519 29.1816 22.7581 29.8037 22.7581C30.4167 22.7581 30.9931 22.6519 31.5329 22.4393C32.0819 22.2268 32.5622 21.9127 32.9739 21.4969C33.3856 21.0719 33.7104 20.5453 33.9483 19.917C34.1954 19.2888 34.3189 18.5635 34.3189 17.7412C34.3189 16.9189 34.1954 16.1936 33.9483 15.5653C33.7104 14.937 33.3856 14.415 32.9739 13.9993C32.5622 13.5743 32.0819 13.2555 31.5329 13.043C30.9931 12.8305 30.4167 12.7242 29.8037 12.7242C29.1816 12.7242 28.5915 12.8305 28.0334 13.043C27.4844 13.2555 26.9995 13.5743 26.5786 13.9993C26.1669 14.415 25.8375 14.937 25.5905 15.5653ZM26.8531 19.3349C26.7067 18.8545 26.6335 18.3232 26.6335 17.7412C26.6335 17.1591 26.7067 16.6325 26.8531 16.1613C26.9995 15.6808 27.2054 15.2743 27.4707 14.9417C27.7452 14.6091 28.0745 14.355 28.4588 14.1794C28.8522 13.9946 29.2914 13.9023 29.7763 13.9023C30.2612 13.9023 30.6958 13.9946 31.08 14.1794C31.4643 14.355 31.7891 14.6091 32.0544 14.9417C32.3289 15.2743 32.5393 15.6808 32.6857 16.1613C32.8321 16.6325 32.9053 17.1591 32.9053 17.7412C32.9053 18.3232 32.8321 18.8545 32.6857 19.3349C32.5393 19.8062 32.3289 20.2081 32.0544 20.5407C31.7891 20.8733 31.4643 21.132 31.08 21.3168C30.6958 21.4923 30.2612 21.5801 29.7763 21.5801C29.2914 21.5801 28.8522 21.4923 28.4588 21.3168C28.0745 21.132 27.7452 20.8733 27.4707 20.5407C27.2054 20.2081 26.9995 19.8062 26.8531 19.3349ZM41.5832 22.4671C42.0406 22.6611 42.5804 22.7581 43.2026 22.7581C43.8247 22.7581 44.36 22.6611 44.8083 22.4671C45.2657 22.273 45.6409 22.0097 45.9336 21.6771C46.2356 21.3353 46.4551 20.9333 46.5924 20.4714C46.7388 20.0094 46.812 19.5105 46.812 18.9746V12.946H45.4807V18.8222C45.4807 19.3026 45.4258 19.7184 45.3161 20.0695C45.2063 20.4113 45.0507 20.6931 44.8494 20.9149C44.6482 21.1366 44.4057 21.3029 44.1221 21.4138C43.8476 21.5154 43.5411 21.5662 43.2026 21.5662C42.5255 21.5662 41.9766 21.3491 41.5557 20.9149C41.1349 20.4806 40.9244 19.7831 40.9244 18.8222V12.946H39.5932V18.9746C39.5932 19.5105 39.6618 20.0094 39.7991 20.4714C39.9455 20.9333 40.165 21.3353 40.4578 21.6771C40.7506 22.0097 41.1257 22.273 41.5832 22.4671ZM59.8973 19.917C60.1535 19.298 60.2816 18.5727 60.2816 17.7412C60.2816 16.9096 60.1535 16.189 59.8973 15.5792C59.6411 14.9601 59.2797 14.452 58.8131 14.0547C58.3465 13.6482 57.7884 13.3479 57.1388 13.1539C56.4892 12.9506 55.7756 12.849 54.9979 12.849C54.6136 12.849 54.1882 12.8675 53.7216 12.9044C53.2641 12.9321 52.8478 12.9922 52.4727 13.0846V22.3978C52.8478 22.4902 53.2641 22.5502 53.7216 22.5779C54.1882 22.6149 54.6136 22.6334 54.9979 22.6334C55.7756 22.6334 56.4892 22.5364 57.1388 22.3423C57.7884 22.1391 58.3465 21.8388 58.8131 21.4415C59.2797 21.035 59.6411 20.5268 59.8973 19.917ZM57.9348 20.4852C57.3126 21.132 56.3703 21.4554 55.1077 21.4554C54.7326 21.4554 54.4398 21.4507 54.2294 21.4415C54.0281 21.4323 53.8863 21.423 53.8039 21.4138V14.0686C53.8863 14.0593 54.0281 14.0501 54.2294 14.0408C54.4398 14.0316 54.7326 14.027 55.1077 14.027C56.3703 14.027 57.3126 14.355 57.9348 15.011C58.5569 15.6577 58.868 16.5678 58.868 17.7412C58.868 18.9146 58.5569 19.8293 57.9348 20.4852ZM67.3202 18.6974V22.5502H68.6514V18.6697C69.2735 17.6904 69.8637 16.7249 70.4218 15.7732C70.9799 14.8123 71.5059 13.8699 72 12.946H70.5178C70.161 13.7036 69.7676 14.4751 69.3376 15.2604C68.9076 16.0365 68.4684 16.7849 68.0201 17.5056C67.5626 16.7849 67.1189 16.0365 66.6889 15.2604C66.2589 14.4751 65.87 13.7036 65.5224 12.946H63.9578C64.4519 13.8699 64.978 14.8123 65.5361 15.7732C66.0942 16.7341 66.6889 17.7088 67.3202 18.6974Z" fill="url(#paint0_linear)"/>
<defs>
<linearGradient id="paint0_linear" x1="72" y1="8" x2="3.5" y2="25" gradientUnits="userSpaceOnUse">
<stop stop-color="#A9A3CD"/>
<stop offset="1" stop-color="#D1DDE5"/>
</linearGradient>
</defs>
</svg>
