<svg width="142" height="50" viewBox="0 0 142 50" fill="none" xmlns="http://www.w3.org/2000/svg">
<path fill-rule="evenodd" clip-rule="evenodd" d="M59.5498 19.4761C60.5026 19.2784 61.4729 19.1793 62.4451 19.1793C70.5196 19.1793 77.0662 25.8921 77.0662 34.173C77.0662 42.4538 70.5196 49.1667 62.4451 49.1667H13.2649C6.01339 49.1547 0.110549 43.1826 0.00151387 35.747C-0.106873 28.3121 5.61814 22.1603 12.8658 21.9253C9.86209 13.4415 14.1339 4.06574 22.4077 0.985537C30.6814 -2.09467 39.8235 2.28604 42.8271 10.7706C46.1462 9.19521 49.9865 9.26642 53.2472 10.9643C56.5085 12.6621 58.8313 15.7989 59.5498 19.4761ZM12.0896 44.1035C13.1692 44.5396 14.3658 44.7576 15.6793 44.7576C16.4351 44.7576 17.1368 44.7122 17.7846 44.6213C18.4323 44.5305 18.9991 44.4215 19.485 44.2943C19.9708 44.1671 20.3756 44.0399 20.6995 43.9127C21.0234 43.7673 21.2483 43.6492 21.3743 43.5583L20.6995 41.3779C20.3037 41.5778 19.7099 41.8049 18.9182 42.0593C18.1264 42.3137 17.1278 42.4409 15.9222 42.4409C14.8786 42.4409 13.961 42.2591 13.1692 41.8957C12.3955 41.5323 11.7478 41.0235 11.226 40.3694C10.7041 39.6971 10.3083 38.8976 10.0384 37.9709C9.78648 37.0442 9.66052 36.0175 9.66052 34.891C9.66052 33.7281 9.80447 32.6832 10.0924 31.7565C10.3983 30.8117 10.8301 30.0122 11.3879 29.358C11.9457 28.7039 12.6204 28.2042 13.4122 27.859C14.2039 27.5137 15.0946 27.3411 16.0842 27.3411C16.552 27.3411 17.0109 27.3865 17.4607 27.4774C17.9285 27.5501 18.3514 27.65 18.7292 27.7772C19.1251 27.9044 19.476 28.0316 19.7818 28.1588C20.0877 28.286 20.3217 28.4041 20.4836 28.5131L21.2393 26.3326C21.1314 26.2599 20.9334 26.1509 20.6455 26.0056C20.3576 25.8602 19.9798 25.7148 19.5119 25.5695C19.0621 25.4241 18.5223 25.2969 17.8925 25.1879C17.2808 25.0789 16.588 25.0243 15.8143 25.0243C14.5907 25.0243 13.4392 25.2424 12.3595 25.6785C11.2799 26.1146 10.3353 26.7505 9.52557 27.5864C8.71586 28.4222 8.0681 29.458 7.58228 30.6936C7.11445 31.911 6.88053 33.3101 6.88053 34.891C6.88053 36.4718 7.08746 37.88 7.50131 39.1156C7.93315 40.3331 8.53593 41.3597 9.30965 42.1956C10.0834 43.0314 11.01 43.6674 12.0896 44.1035ZM42.2409 44.3488V42.0593H33.604V25.4604H30.9859V44.3488H42.2409ZM50.328 30.6118C49.8602 31.8474 49.6263 33.2738 49.6263 34.891C49.6263 36.5082 49.8602 37.9345 50.328 39.1701C50.8138 40.4057 51.4616 41.4415 52.2713 42.2773C53.099 43.095 54.0527 43.7128 55.1323 44.1307C56.2299 44.5486 57.3904 44.7576 58.614 44.7576C59.8196 44.7576 60.9532 44.5486 62.0148 44.1307C63.0944 43.7128 64.039 43.095 64.8487 42.2773C65.6584 41.4415 66.2972 40.4057 66.765 39.1701C67.2509 37.9345 67.4938 36.5082 67.4938 34.891C67.4938 33.2738 67.2509 31.8474 66.765 30.6118C66.2972 29.3762 65.6584 28.3496 64.8487 27.5319C64.039 26.696 63.0944 26.0692 62.0148 25.6512C60.9532 25.2333 59.8196 25.0243 58.614 25.0243C57.3904 25.0243 56.2299 25.2333 55.1323 25.6512C54.0527 26.0692 53.099 26.696 52.2713 27.5319C51.4616 28.3496 50.8138 29.3762 50.328 30.6118ZM52.8111 38.0254C52.5232 37.0805 52.3793 36.0357 52.3793 34.891C52.3793 33.7462 52.5232 32.7105 52.8111 31.7838C53.099 30.8389 53.5039 30.0394 54.0257 29.3853C54.5655 28.7311 55.2132 28.2314 55.969 27.8862C56.7427 27.5228 57.6064 27.3411 58.56 27.3411C59.5137 27.3411 60.3684 27.5228 61.1241 27.8862C61.8798 28.2314 62.5186 28.7311 63.0404 29.3853C63.5802 30.0394 63.9941 30.8389 64.2819 31.7838C64.5698 32.7105 64.7138 33.7462 64.7138 34.891C64.7138 36.0357 64.5698 37.0805 64.2819 38.0254C63.9941 38.9521 63.5802 39.7425 63.0404 40.3967C62.5186 41.0508 61.8798 41.5596 61.1241 41.923C60.3684 42.2682 59.5137 42.4409 58.56 42.4409C57.6064 42.4409 56.7427 42.2682 55.969 41.923C55.2132 41.5596 54.5655 41.0508 54.0257 40.3967C53.5039 39.7425 53.099 38.9521 52.8111 38.0254ZM81.7802 44.1852C82.6799 44.5668 83.7415 44.7576 84.9651 44.7576C86.1886 44.7576 87.2413 44.5668 88.1229 44.1852C89.0226 43.8036 89.7604 43.2858 90.3361 42.6316C90.9299 41.9593 91.3618 41.1689 91.6317 40.2604C91.9196 39.3519 92.0635 38.3706 92.0635 37.3167V25.4604H89.4455V37.0169C89.4455 37.9618 89.3375 38.7795 89.1216 39.47C88.9057 40.1423 88.5998 40.6965 88.2039 41.1326C87.8081 41.5687 87.3312 41.8957 86.7734 42.1138C86.2336 42.3137 85.6308 42.4136 84.9651 42.4136C83.6336 42.4136 82.554 41.9866 81.7263 41.1326C80.8986 40.2786 80.4847 38.9067 80.4847 37.0169V25.4604H77.8667V37.3167C77.8667 38.3706 78.0016 39.3519 78.2715 40.2604C78.5594 41.1689 78.9913 41.9593 79.567 42.6316C80.1428 43.2858 80.8806 43.8036 81.7802 44.1852ZM117.798 39.1701C118.302 37.9527 118.554 36.5263 118.554 34.891C118.554 33.2556 118.302 31.8383 117.798 30.6391C117.294 29.4216 116.583 28.4222 115.666 27.6409C114.748 26.8414 113.651 26.2509 112.373 25.8693C111.095 25.4695 109.692 25.2696 108.163 25.2696C107.407 25.2696 106.57 25.306 105.652 25.3787C104.753 25.4332 103.934 25.5513 103.196 25.733V44.049C103.934 44.2307 104.753 44.3488 105.652 44.4033C106.57 44.476 107.407 44.5123 108.163 44.5123C109.692 44.5123 111.095 44.3215 112.373 43.9399C113.651 43.5402 114.748 42.9496 115.666 42.1683C116.583 41.3688 117.294 40.3694 117.798 39.1701ZM113.938 40.2876C112.715 41.5596 110.862 42.1956 108.378 42.1956C107.641 42.1956 107.065 42.1865 106.651 42.1683C106.255 42.1501 105.976 42.132 105.814 42.1138V27.6682C105.976 27.65 106.255 27.6318 106.651 27.6137C107.065 27.5955 107.641 27.5864 108.378 27.5864C110.862 27.5864 112.715 28.2314 113.938 29.5216C115.162 30.7935 115.774 32.5833 115.774 34.891C115.774 37.1986 115.162 38.9975 113.938 40.2876ZM132.396 36.7716V44.3488H135.014V36.7171C136.238 34.791 137.399 32.8922 138.496 31.0206C139.594 29.1309 140.628 27.2775 141.6 25.4604H138.685C137.983 26.9504 137.21 28.4677 136.364 30.0122C135.518 31.5385 134.655 33.0103 133.773 34.4276C132.873 33.0103 132 31.5385 131.155 30.0122C130.309 28.4677 129.544 26.9504 128.861 25.4604H125.784C126.755 27.2775 127.79 29.1309 128.888 31.0206C129.985 32.9104 131.155 34.8274 132.396 36.7716Z" fill="white"/>
</svg>
